<mxfile host="Electron" modified="2024-04-17T14:38:09.375Z" agent="Mozilla/5.0 (Macintosh; Intel Mac OS X 10_15_7) AppleWebKit/537.36 (KHTML, like Gecko) draw.io/24.0.4 Chrome/120.0.6099.109 Electron/28.1.0 Safari/537.36" etag="gWDSe0kURzQ-EbGIpu7v" version="24.0.4" type="device">
  <diagram id="C5RBs43oDa-KdzZeNtuy" name="Page-1">
    <mxGraphModel dx="1034" dy="854" grid="1" gridSize="10" guides="1" tooltips="1" connect="1" arrows="1" fold="1" page="1" pageScale="1" pageWidth="827" pageHeight="1169" math="0" shadow="0">
      <root>
        <mxCell id="WIyWlLk6GJQsqaUBKTNV-0" />
        <mxCell id="WIyWlLk6GJQsqaUBKTNV-1" parent="WIyWlLk6GJQsqaUBKTNV-0" />
        <mxCell id="4c1Wwkycgimjx49HBZcF-3" style="edgeStyle=orthogonalEdgeStyle;curved=1;rounded=0;orthogonalLoop=1;jettySize=auto;html=1;entryX=0;entryY=0.5;entryDx=0;entryDy=0;" edge="1" parent="WIyWlLk6GJQsqaUBKTNV-1" source="4c1Wwkycgimjx49HBZcF-0" target="4c1Wwkycgimjx49HBZcF-2">
          <mxGeometry relative="1" as="geometry" />
        </mxCell>
        <mxCell id="4c1Wwkycgimjx49HBZcF-0" value="" style="ellipse;html=1;shape=startState;fillColor=#000000;strokeColor=#ff0000;" vertex="1" parent="WIyWlLk6GJQsqaUBKTNV-1">
          <mxGeometry x="100" y="380" width="30" height="30" as="geometry" />
        </mxCell>
        <mxCell id="4c1Wwkycgimjx49HBZcF-5" style="edgeStyle=orthogonalEdgeStyle;curved=1;rounded=0;orthogonalLoop=1;jettySize=auto;html=1;" edge="1" parent="WIyWlLk6GJQsqaUBKTNV-1" source="4c1Wwkycgimjx49HBZcF-2" target="4c1Wwkycgimjx49HBZcF-4">
          <mxGeometry relative="1" as="geometry" />
        </mxCell>
        <mxCell id="4c1Wwkycgimjx49HBZcF-2" value="reads introduction" style="rounded=0;whiteSpace=wrap;html=1;" vertex="1" parent="WIyWlLk6GJQsqaUBKTNV-1">
          <mxGeometry x="200" y="365" width="120" height="60" as="geometry" />
        </mxCell>
        <mxCell id="4c1Wwkycgimjx49HBZcF-9" style="edgeStyle=orthogonalEdgeStyle;curved=1;rounded=0;orthogonalLoop=1;jettySize=auto;html=1;" edge="1" parent="WIyWlLk6GJQsqaUBKTNV-1" source="4c1Wwkycgimjx49HBZcF-4" target="4c1Wwkycgimjx49HBZcF-8">
          <mxGeometry relative="1" as="geometry" />
        </mxCell>
        <mxCell id="4c1Wwkycgimjx49HBZcF-4" value="select 8 or 10 coin throws" style="rounded=0;whiteSpace=wrap;html=1;" vertex="1" parent="WIyWlLk6GJQsqaUBKTNV-1">
          <mxGeometry x="400" y="365" width="120" height="60" as="geometry" />
        </mxCell>
        <mxCell id="4c1Wwkycgimjx49HBZcF-11" style="edgeStyle=orthogonalEdgeStyle;curved=1;rounded=0;orthogonalLoop=1;jettySize=auto;html=1;" edge="1" parent="WIyWlLk6GJQsqaUBKTNV-1" source="4c1Wwkycgimjx49HBZcF-8" target="4c1Wwkycgimjx49HBZcF-10">
          <mxGeometry relative="1" as="geometry" />
        </mxCell>
        <mxCell id="4c1Wwkycgimjx49HBZcF-8" value="select heads or tails (n-times)" style="rounded=0;whiteSpace=wrap;html=1;" vertex="1" parent="WIyWlLk6GJQsqaUBKTNV-1">
          <mxGeometry x="600" y="365" width="120" height="60" as="geometry" />
        </mxCell>
        <mxCell id="4c1Wwkycgimjx49HBZcF-13" style="edgeStyle=orthogonalEdgeStyle;curved=1;rounded=0;orthogonalLoop=1;jettySize=auto;html=1;" edge="1" parent="WIyWlLk6GJQsqaUBKTNV-1" source="4c1Wwkycgimjx49HBZcF-10" target="4c1Wwkycgimjx49HBZcF-12">
          <mxGeometry relative="1" as="geometry" />
        </mxCell>
        <mxCell id="4c1Wwkycgimjx49HBZcF-10" value="send answer form" style="rounded=0;whiteSpace=wrap;html=1;" vertex="1" parent="WIyWlLk6GJQsqaUBKTNV-1">
          <mxGeometry x="800" y="365" width="120" height="60" as="geometry" />
        </mxCell>
        <mxCell id="4c1Wwkycgimjx49HBZcF-15" style="edgeStyle=orthogonalEdgeStyle;curved=1;rounded=0;orthogonalLoop=1;jettySize=auto;html=1;" edge="1" parent="WIyWlLk6GJQsqaUBKTNV-1" source="4c1Wwkycgimjx49HBZcF-12" target="4c1Wwkycgimjx49HBZcF-14">
          <mxGeometry relative="1" as="geometry" />
        </mxCell>
        <mxCell id="4c1Wwkycgimjx49HBZcF-12" value="read statistics" style="rounded=0;whiteSpace=wrap;html=1;" vertex="1" parent="WIyWlLk6GJQsqaUBKTNV-1">
          <mxGeometry x="1000" y="365" width="120" height="60" as="geometry" />
        </mxCell>
        <mxCell id="4c1Wwkycgimjx49HBZcF-14" value="" style="ellipse;html=1;shape=endState;fillColor=#000000;strokeColor=#ff0000;" vertex="1" parent="WIyWlLk6GJQsqaUBKTNV-1">
          <mxGeometry x="1200" y="380" width="30" height="30" as="geometry" />
        </mxCell>
      </root>
    </mxGraphModel>
  </diagram>
</mxfile>
